<?xml version="1.0" encoding="utf-8"?>
<!-- Generator: Adobe Illustrator 23.0.0, SVG Export Plug-In . SVG Version: 6.00 Build 0)  -->
<svg version="1.1" id="Calque_1" xmlns="http://www.w3.org/2000/svg" xmlns:xlink="http://www.w3.org/1999/xlink" x="0px" y="0px"
	 viewBox="0 0 1920 1080" style="enable-background:new 0 0 1920 1080;" xml:space="preserve">
<style type="text/css">
	.st0{fill:#FFFFFF;}
	.st1{enable-background:new    ;}
</style>
<circle class="st0" cx="73.1" cy="417.2" r="44"/>
<circle class="st0" cx="73.1" cy="659" r="44"/>
<circle class="st0" cx="211.2" cy="298" r="27.9"/>
<circle class="st0" cx="211.2" cy="787.7" r="31"/>
<circle class="st0" cx="335.4" cy="325.7" r="33.4"/>
<circle class="st0" cx="170.2" cy="542.8" r="29.4"/>
<circle class="st0" cx="309.8" cy="542.8" r="23.9"/>
<circle class="st0" cx="259.5" cy="665.2" r="17.3"/>
<circle class="st0" cx="259.5" cy="420.4" r="17.3"/>
<circle class="st0" cx="38" cy="542.8" r="27.9"/>
<circle class="st0" cx="335.4" cy="757.5" r="33.4"/>
<g class="st1">
	<path class="st0" d="M557.6,422.9v46H426.1v54.8h126.6v46H426.1v54.8h136.1v46H376.6V422.9H557.6z"/>
	<path class="st0" d="M600.8,670.4V422.9h49.5v201.5h129.4v46H600.8z"/>
	<path class="st0" d="M856.4,422.9v100.8h117V422.9h49.5v247.5h-49.5V569.6h-117v100.8h-49.5V422.9H856.4z"/>
	<path class="st0" d="M1052.3,670.4l116-247.5h33.9l115.6,247.5h-50.2l-24.8-53.7h-115.3l-24.8,53.7H1052.3z M1147.4,573.5h75.7
		l-37.8-82L1147.4,573.5z"/>
	<path class="st0" d="M1390.7,595.1c0.7,2.4,2.2,5.1,4.4,8.3c2.2,3.2,5.6,6.3,10.1,9.4c4.5,3.1,10.2,5.7,17.1,7.8
		c7,2.1,15.7,3.2,26.3,3.2c4.2,0,9.3-0.2,15.2-0.5c5.9-0.4,11.5-1.3,16.8-2.8c5.3-1.5,10-3.9,14-7.1c4-3.2,6.1-7.7,6.4-13.6
		c0.2-5.7-1.9-10.4-6.4-14.1c-2.8-2.6-8.1-5.3-15.7-8.1c-7.7-2.8-19.5-5.4-35.5-7.8c-4.2-0.7-9.7-1.6-16.3-2.7
		c-6.6-1.1-13.6-2.7-21-5c-7.4-2.2-14.9-5.2-22.3-9c-7.4-3.8-14-8.5-19.8-14.1c-5.8-5.7-10.3-12.4-13.6-20.3
		c-3.3-7.9-4.6-17.3-3.9-28.1c0.7-10.6,3.6-20.2,8.7-28.8c5.1-8.6,11.8-15.9,20.3-21.9c8.5-6,18.6-10.6,30.4-13.8
		c11.8-3.2,24.9-4.8,39.2-4.8c14.9,0,28.2,1.8,40,5.5c11.8,3.7,21.9,8.8,30.2,15.6c8.4,6.7,14.9,14.8,19.6,24.2
		c4.7,9.4,7.4,19.9,8.1,31.5h-51.3c-0.7-6.1-2.7-11-5.8-14.7c-3.2-3.7-7.1-6.5-11.7-8.5c-4.6-2-9.6-3.4-15-4.2
		c-5.4-0.8-10.6-1.2-15.6-1.2c-4,0-8.5,0.2-13.6,0.7c-5.1,0.5-9.8,1.5-14.3,3c-4.5,1.5-8.3,3.8-11.3,6.7c-3.1,3-4.8,6.8-5.3,11.5
		c0,1.7,0.1,3.8,0.4,6.4c0.2,2.6,1.9,5.3,5,8.1c3.1,2.8,8.1,5.5,15.2,8.1c7.1,2.6,17.4,4.8,31.1,6.7c35.8,4.7,61.9,13.4,78.1,26
		c16.3,12.6,24.2,30.4,23.7,53.2c-0.2,9-2.5,17.8-6.7,26.5c-4.2,8.7-10.6,16.5-19.1,23.3c-8.5,6.8-19.2,12.3-32.2,16.4
		c-13,4.1-28.3,6.2-46,6.2c-12.3,0-24.8-1.4-37.7-4.1c-12.9-2.7-24.6-7.1-35.4-13.3c-10.7-6.1-19.7-14.1-27-23.9
		c-7.3-9.8-11.4-21.7-12.4-35.9H1390.7z"/>
	<path class="st0" d="M1640.3,595.1c0.7,2.4,2.2,5.1,4.4,8.3c2.2,3.2,5.6,6.3,10.1,9.4c4.5,3.1,10.2,5.7,17.1,7.8
		c7,2.1,15.7,3.2,26.3,3.2c4.2,0,9.3-0.2,15.2-0.5c5.9-0.4,11.5-1.3,16.8-2.8c5.3-1.5,10-3.9,14-7.1c4-3.2,6.1-7.7,6.4-13.6
		c0.2-5.7-1.9-10.4-6.4-14.1c-2.8-2.6-8.1-5.3-15.7-8.1c-7.7-2.8-19.5-5.4-35.5-7.8c-4.2-0.7-9.7-1.6-16.3-2.7
		c-6.6-1.1-13.6-2.7-21-5c-7.4-2.2-14.9-5.2-22.3-9c-7.4-3.8-14-8.5-19.8-14.1c-5.8-5.7-10.3-12.4-13.6-20.3
		c-3.3-7.9-4.6-17.3-3.9-28.1c0.7-10.6,3.6-20.2,8.7-28.8c5.1-8.6,11.8-15.9,20.3-21.9c8.5-6,18.6-10.6,30.4-13.8
		c11.8-3.2,24.9-4.8,39.2-4.8c14.9,0,28.2,1.8,40,5.5c11.8,3.7,21.9,8.8,30.2,15.6c8.4,6.7,14.9,14.8,19.6,24.2
		c4.7,9.4,7.4,19.9,8.1,31.5h-51.3c-0.7-6.1-2.7-11-5.8-14.7c-3.2-3.7-7.1-6.5-11.7-8.5c-4.6-2-9.6-3.4-15-4.2
		c-5.4-0.8-10.6-1.2-15.6-1.2c-4,0-8.5,0.2-13.6,0.7c-5.1,0.5-9.8,1.5-14.3,3c-4.5,1.5-8.3,3.8-11.3,6.7c-3.1,3-4.8,6.8-5.3,11.5
		c0,1.7,0.1,3.8,0.4,6.4c0.2,2.6,1.9,5.3,5,8.1c3.1,2.8,8.1,5.5,15.2,8.1c7.1,2.6,17.4,4.8,31.1,6.7c35.8,4.7,61.9,13.4,78.1,26
		c16.3,12.6,24.2,30.4,23.7,53.2c-0.2,9-2.5,17.8-6.7,26.5c-4.2,8.7-10.6,16.5-19.1,23.3c-8.5,6.8-19.2,12.3-32.2,16.4
		c-13,4.1-28.3,6.2-46,6.2c-12.3,0-24.8-1.4-37.7-4.1c-12.9-2.7-24.6-7.1-35.4-13.3c-10.7-6.1-19.7-14.1-27-23.9
		c-7.3-9.8-11.4-21.7-12.4-35.9H1640.3z"/>
	<path class="st0" d="M1857.4,670.4V422.9h49.5v247.5H1857.4z"/>
</g>
</svg>
